<svg width="16" height="16" viewBox="0 0 16 16" fill="none" xmlns="http://www.w3.org/2000/svg">
<path d="M2.66683 5.33333V12.6667C2.66683 13.0203 2.80731 13.3594 3.05735 13.6095C3.3074 13.8595 3.64654 14 4.00016 14H12.0002C12.3538 14 12.6929 13.8595 12.943 13.6095C13.193 13.3594 13.3335 13.0203 13.3335 12.6667V5.33333M6.66683 8H9.3335M2.00016 2H14.0002C14.3684 2 14.6668 2.29848 14.6668 2.66667V4.66667C14.6668 5.03486 14.3684 5.33333 14.0002 5.33333H2.00016C1.63197 5.33333 1.3335 5.03486 1.3335 4.66667V2.66667C1.3335 2.29848 1.63197 2 2.00016 2Z" stroke="#470001" stroke-width="1.5" stroke-linecap="round" stroke-linejoin="round"/>
</svg>
