<svg width="40" height="40" viewBox="0 0 40 40" fill="none" xmlns="http://www.w3.org/2000/svg">
<path d="M14.7084 27.7643C14.7084 25.2637 14.2165 21.1017 14.2165 21.1017C13.2378 20.669 11.2803 19.5615 11.2803 18.5924C11.2803 18.307 11.3552 18.0797 11.4719 17.9002M14.7084 27.7643C14.7084 29.1487 15.5983 33.0425 15.5983 33.0425M14.7084 27.7643C14.7084 27.7643 11.7986 28.6295 11.2804 28.9757C10.7622 29.3219 8.53419 33.181 11.3668 36.1575C14.1993 39.134 21.8162 37.8015 25.4433 37.0228M22.2481 32.0041C23.0541 31.3407 24.2409 30.3601 24.4069 29.3218C24.5314 28.5431 24.526 24.1742 24.526 23.7416M24.526 25.1685C26.3396 26.005 31.1566 28.3716 31.0566 28.8892M31.0566 28.8892C30.923 29.5814 30.1354 30.3602 29.7612 30.8793C28.4514 32.6965 25.9441 35.4998 25.875 35.9844C25.8059 36.4689 25.6448 36.8786 25.4433 37.0228M31.0566 28.8892C30.6536 30.8793 30.0831 34.9932 29.7612 35.6383C29.5022 36.1575 26.6523 36.7632 25.4433 37.0228M16.6347 24.4763C18.0164 25.6012 20.6935 26.9856 22.4207 26.0338C24.2635 25.0183 25.6829 21.9653 26.0479 19.025M11.4719 17.9002C11.7515 17.4701 12.2711 17.3148 12.5758 17.2945C12.6046 16.1408 12.3166 14.2662 13.5257 13.0547C14.1303 12.449 15.512 12.7547 16.4619 11.9298C17.7573 10.805 16.8937 9.68013 18.88 9.42055C20.8663 9.16097 22.5934 10.6319 22.5934 11.1511C22.5934 11.6703 22.9389 12.3661 23.8888 12.622C24.5314 12.7951 25.5008 12.622 25.875 12.622C26.0279 14.2565 26.3378 16.6891 26.0479 19.025M11.4719 17.9002C9.91119 17.2368 8.40671 15.1564 8.94875 12.622C9.20783 11.4106 10.3117 10.8914 10.935 11.0645M9.46695 11.6124C8.57691 10.3723 8.5648 7.89585 10.1313 6.30547C11.1077 5.31421 12.1177 5.09409 13.0676 5.09409C13.0676 3.70965 15.4257 1.89258 19.0528 1.89258C23.5435 1.89258 25.6161 4.66145 25.7888 5.69978M25.7888 5.69978C26.885 5.69978 28.0457 6.18972 28.8712 7.43033C29.7348 8.72809 29.3582 10.5742 29.1567 10.8914C29.6173 11.3529 29.934 11.9143 29.934 13.0547C29.934 14.1795 29.6749 15.4774 28.7249 15.9101C28.5234 16.9773 28.3796 17.6406 27.775 18.2463C26.9115 19.1115 26.4794 18.8808 26.0479 19.025M25.7888 5.69978C25.7888 5.69978 24.6396 5.69978 24.2942 6.30547M24.4069 15.9101C23.5434 15.564 21.5571 15.737 21.3844 16.5158C21.1253 17.6839 22.248 18.5924 22.248 20.2365C22.248 20.6036 21.5572 20.7556 21.2118 20.7556C20.9354 20.7556 20.1754 20.7267 19.9164 20.5825M19.0528 22.8322C19.9164 23.0918 21.2982 23.0917 21.989 22.8322" stroke="white" stroke-width="1.5"/>
</svg>
