<svg width="16" height="16" viewBox="0 0 16 16" fill="none" xmlns="http://www.w3.org/2000/svg">
<g clip-path="url(#clip0_2492_6547)">
<path d="M11.6668 4.3335H11.6735M4.66683 1.3335H11.3335C13.1744 1.3335 14.6668 2.82588 14.6668 4.66683V11.3335C14.6668 13.1744 13.1744 14.6668 11.3335 14.6668H4.66683C2.82588 14.6668 1.3335 13.1744 1.3335 11.3335V4.66683C1.3335 2.82588 2.82588 1.3335 4.66683 1.3335ZM10.6668 7.58016C10.7491 8.13499 10.6543 8.70164 10.396 9.19951C10.1377 9.69737 9.72893 10.1011 9.22791 10.3533C8.7269 10.6055 8.15913 10.6932 7.60535 10.6041C7.05158 10.515 6.54 10.2536 6.14339 9.85694C5.74677 9.46032 5.48532 8.94875 5.39621 8.39497C5.3071 7.8412 5.39487 7.27343 5.64705 6.77241C5.89922 6.2714 6.30295 5.86266 6.80082 5.60432C7.29868 5.34599 7.86533 5.25122 8.42016 5.3335C8.98611 5.41742 9.51006 5.68114 9.91462 6.0857C10.3192 6.49026 10.5829 7.01421 10.6668 7.58016Z" stroke="#454545" stroke-width="1.5" stroke-linecap="round" stroke-linejoin="round"/>
</g>
<defs>
<clipPath id="clip0_2492_6547">
<rect width="16" height="16" fill="white"/>
</clipPath>
</defs>
</svg>
