<svg width="16" height="16" viewBox="0 0 16 16" fill="none" xmlns="http://www.w3.org/2000/svg">
<path d="M2.75 3.5322C2.75 3.17865 2.86825 2.88699 3.10473 2.6572C3.34121 2.4274 3.64865 2.3125 4.02703 2.3125C4.39865 2.3125 4.69932 2.42562 4.92905 2.65189C5.16554 2.88523 5.28378 3.18926 5.28378 3.56402C5.28378 3.90341 5.16892 4.18623 4.93919 4.4125C4.70271 4.64583 4.39189 4.7625 4.00676 4.7625H3.99662C3.625 4.7625 3.32433 4.64583 3.09459 4.4125C2.86486 4.17917 2.75 3.88573 2.75 3.5322ZM2.88176 12.8125V5.72765H5.13176V12.8125H2.88176ZM6.37838 12.8125H8.62838V8.85644C8.62838 8.60896 8.65541 8.41805 8.70946 8.28371C8.80405 8.0433 8.94763 7.84002 9.1402 7.67386C9.33277 7.5077 9.57432 7.42462 9.86486 7.42462C10.6216 7.42462 11 7.95846 11 9.02614V12.8125H13.25V8.75038C13.25 7.70391 13.0135 6.91023 12.5405 6.36932C12.0676 5.82841 11.4426 5.55795 10.6655 5.55795C9.79392 5.55795 9.11486 5.95038 8.62838 6.73523V6.75644H8.61824L8.62838 6.73523V5.72765H6.37838C6.39189 5.95391 6.39865 6.65744 6.39865 7.83826C6.39865 9.01906 6.39189 10.6771 6.37838 12.8125Z" fill="#454545"/>
</svg>
