<svg width="16" height="16" viewBox="0 0 16 16" fill="none" xmlns="http://www.w3.org/2000/svg">
<path d="M6.00016 11.3337H4.66683C3.78277 11.3337 2.93493 10.9825 2.30981 10.3573C1.68469 9.73223 1.3335 8.88438 1.3335 8.00033C1.3335 7.11627 1.68469 6.26842 2.30981 5.6433C2.93493 5.01818 3.78277 4.66699 4.66683 4.66699H6.00016M10.0002 4.66699H11.3335C12.2176 4.66699 13.0654 5.01818 13.6905 5.6433C14.3156 6.26842 14.6668 7.11627 14.6668 8.00033C14.6668 8.88438 14.3156 9.73223 13.6905 10.3573C13.0654 10.9825 12.2176 11.3337 11.3335 11.3337H10.0002M5.3335 8.00033H10.6668" stroke="#470001" stroke-width="1.5" stroke-linecap="square" stroke-linejoin="round"/>
</svg>
