<svg width="16" height="16" viewBox="0 0 16 16" fill="none" xmlns="http://www.w3.org/2000/svg">
<path d="M13.3332 6.66683C13.3332 9.9955 9.6405 13.4622 8.4005 14.5328C8.28499 14.6197 8.14437 14.6667 7.99984 14.6667C7.85531 14.6667 7.71469 14.6197 7.59917 14.5328C6.35917 13.4622 2.6665 9.9955 2.6665 6.66683C2.6665 5.25234 3.22841 3.89579 4.2286 2.89559C5.2288 1.8954 6.58535 1.3335 7.99984 1.3335C9.41433 1.3335 10.7709 1.8954 11.7711 2.89559C12.7713 3.89579 13.3332 5.25234 13.3332 6.66683Z" stroke="#737373" stroke-width="1.5" stroke-linecap="round" stroke-linejoin="round"/>
<path d="M7.99984 8.66683C9.10441 8.66683 9.99984 7.7714 9.99984 6.66683C9.99984 5.56226 9.10441 4.66683 7.99984 4.66683C6.89527 4.66683 5.99984 5.56226 5.99984 6.66683C5.99984 7.7714 6.89527 8.66683 7.99984 8.66683Z" stroke="#737373" stroke-width="1.5" stroke-linecap="round" stroke-linejoin="round"/>
</svg>
