<svg width="16" height="16" viewBox="0 0 16 16" fill="none" xmlns="http://www.w3.org/2000/svg">
<path d="M9.15432 14C9.03712 14.0912 8.86888 14.167 8.66647 14.2196C8.46406 14.2723 8.23458 14.3 8.00099 14.3C7.7674 14.3 7.53792 14.2723 7.33551 14.2196C7.13309 14.167 6.96486 14.0912 6.84766 14" stroke="black" stroke-width="1.5" stroke-linecap="square" stroke-linejoin="round"/>
<path fill-rule="evenodd" clip-rule="evenodd" d="M4.6413 1.97425C5.5321 1.08345 6.74028 0.583008 8.00006 0.583008C9.25984 0.583008 10.468 1.08345 11.3588 1.97425C12.2496 2.86505 12.7501 4.07323 12.7501 5.33301C12.7501 7.55584 13.2254 8.92981 13.6585 9.72387C13.8761 10.1228 14.0871 10.383 14.232 10.5359C14.3047 10.6126 14.3612 10.6629 14.3943 10.6904C14.4108 10.7042 14.4215 10.7124 14.4255 10.7153M8.00006 2.08301C7.1381 2.08301 6.31145 2.42542 5.70196 3.03491C5.09247 3.6444 4.75006 4.47105 4.75006 5.33301C4.75006 7.77685 4.22536 9.40287 3.65848 10.4421C3.63215 10.4904 3.60576 10.5374 3.57937 10.583H12.4207C12.3944 10.5374 12.368 10.4904 12.3416 10.4421C11.7748 9.40287 11.2501 7.77685 11.2501 5.33301C11.2501 4.47105 10.9076 3.6444 10.2982 3.03491C9.68866 2.42542 8.86201 2.08301 8.00006 2.08301ZM14.417 10.7096L14.418 10.7102L14.4197 10.7114L14.4225 10.7133L14.4262 10.7159C14.4268 10.7163 14.4272 10.7166 14.4272 10.7165C14.4272 10.7165 14.4267 10.7162 14.4259 10.7156C14.694 10.9005 14.8125 11.2378 14.7179 11.5503C14.6221 11.8667 14.3306 12.083 14.0001 12.083H2.00006C1.66956 12.083 1.37801 11.8667 1.28224 11.5503C1.18762 11.2378 1.30613 10.9005 1.5742 10.7156C1.57434 10.7155 1.57449 10.7154 1.57466 10.7153C1.5786 10.7124 1.58931 10.7042 1.60586 10.6904C1.63893 10.6629 1.69546 10.6126 1.76809 10.5359C1.91298 10.383 2.12404 10.1228 2.34164 9.72387C2.77476 8.92981 3.25006 7.55584 3.25006 5.33301C3.25006 4.07323 3.7505 2.86505 4.6413 1.97425" fill="black"/>
</svg>
