<svg width="16" height="16" viewBox="0 0 16 16" fill="none" xmlns="http://www.w3.org/2000/svg">
<path d="M5.22667 9.00634L9.78 11.6597M9.77333 4.33967L5.22667 6.99301M13.5 3.33301C13.5 4.43758 12.6046 5.33301 11.5 5.33301C10.3954 5.33301 9.5 4.43758 9.5 3.33301C9.5 2.22844 10.3954 1.33301 11.5 1.33301C12.6046 1.33301 13.5 2.22844 13.5 3.33301ZM5.5 7.99967C5.5 9.10424 4.60457 9.99967 3.5 9.99967C2.39543 9.99967 1.5 9.10424 1.5 7.99967C1.5 6.8951 2.39543 5.99967 3.5 5.99967C4.60457 5.99967 5.5 6.8951 5.5 7.99967ZM13.5 12.6663C13.5 13.7709 12.6046 14.6663 11.5 14.6663C10.3954 14.6663 9.5 13.7709 9.5 12.6663C9.5 11.5618 10.3954 10.6663 11.5 10.6663C12.6046 10.6663 13.5 11.5618 13.5 12.6663Z" stroke="#454545" stroke-width="1.5" stroke-linecap="round" stroke-linejoin="round"/>
</svg>
