<svg width="16" height="16" viewBox="0 0 16 16" fill="none" xmlns="http://www.w3.org/2000/svg">
<path d="M10.6668 14V12.6667C10.6668 11.9594 10.3859 11.2811 9.88578 10.781C9.38568 10.281 8.70741 10 8.00016 10H4.00016C3.29292 10 2.61464 10.281 2.11454 10.781C1.61445 11.2811 1.3335 11.9594 1.3335 12.6667V14M14.6668 14V12.6667C14.6664 12.0758 14.4697 11.5018 14.1077 11.0349C13.7457 10.5679 13.2389 10.2344 12.6668 10.0867M10.6668 2.08667C11.2404 2.23353 11.7489 2.56713 12.1119 3.03487C12.475 3.50261 12.6721 4.07789 12.6721 4.67C12.6721 5.26211 12.475 5.83739 12.1119 6.30513C11.7489 6.77287 11.2404 7.10647 10.6668 7.25333M8.66683 4.66667C8.66683 6.13943 7.47292 7.33333 6.00016 7.33333C4.5274 7.33333 3.3335 6.13943 3.3335 4.66667C3.3335 3.19391 4.5274 2 6.00016 2C7.47292 2 8.66683 3.19391 8.66683 4.66667Z" stroke="#470001" stroke-width="1.5" stroke-linecap="square"/>
</svg>
